<svg xmlns="http://www.w3.org/2000/svg" width="980" height="180" viewBox="0 0 980 180" role="img" aria-labelledby="title desc">
  <title id="title">Senyo Solutions logo</title>
  <desc id="desc">A shield icon with an interlocking SS monogram followed by the Senyo Solutions wordmark and tagline.</desc>
  <g fill="none" stroke="#0F62FE" stroke-linejoin="round" stroke-linecap="round">
    <path d="M58 28 L104 42 L104 82 C104 113 84 135 58 148 C32 135 12 113 12 82 L12 42 Z" stroke-width="8"/>
    <path d="M38 54 C32 47 24 49 22 56 C20 64 28 68 38 71 C48 74 56 78 56 87 C56 97 47 104 36 102 C29 101 24 98 19 93" stroke-width="6.5"/>
    <path d="M78 54 C72 47 64 49 62 56 C60 64 68 68 78 71 C88 74 96 78 96 87 C96 97 87 104 76 102 C69 101 64 98 59 93" stroke-width="6.5"/>
    <path d="M49 64 L69 64 M49 83 L69 83" stroke-width="4.5"/>
  </g>
  <text x="136" y="92" font-size="44" font-weight="700" fill="#111111" font-family="Arial, Helvetica, sans-serif">Senyo</text>
  <text x="288" y="92" font-size="44" font-weight="700" fill="#0F62FE" font-family="Arial, Helvetica, sans-serif">Solutions</text>
  <text x="136" y="124" font-size="16" fill="#6B7280" font-family="Arial, Helvetica, sans-serif" letter-spacing="1.1">MANAGED IT • SECURITY • SUPPORT</text>
</svg>
