<svg xmlns="http://www.w3.org/2000/svg" width="256" height="256" viewBox="0 0 120 120" role="img" aria-labelledby="title desc">
  <title id="title">Senyo Solutions favicon</title>
  <desc id="desc">Blue shield favicon with an interlocking SS monogram for Senyo Solutions.</desc>
  <rect width="120" height="120" fill="none"/>
  <g fill="none" stroke="#0F62FE" stroke-linejoin="round" stroke-linecap="round">
    <path d="M60 12 L90 21 L90 48 C90 70 77 86 60 96 C43 86 30 70 30 48 L30 21 Z" stroke-width="7"/>
    <path d="M47 35 C42 30 35 31 33 36 C31 41 36 45 43 47 C50 49 56 52 56 58 C56 65 50 71 42 70 C38 70 34 68 31 65" stroke-width="5.5"/>
    <path d="M73 35 C68 30 61 31 59 36 C57 41 62 45 69 47 C76 49 82 52 82 58 C82 65 76 71 68 70 C64 70 60 68 57 65" stroke-width="5.5"/>
    <path d="M50 43 L67 43 M50 56 L67 56" stroke-width="4"/>
  </g>
</svg>
