<svg xmlns="http://www.w3.org/2000/svg" width="64" height="64" viewBox="0 0 64 64" fill="none">
  <rect x="12" y="12" width="40" height="40" rx="10" stroke="#0F172A" stroke-width="3"/>
  <path d="M37 20H28.5C24.8 20 22.5 22.2 22.5 25.1C22.5 27.8 24.6 29.2 28.1 30L33.1 31.1C36.8 31.9 39 34 39 37.4C39 41.2 35.9 44 31.5 44H22.5" stroke="#2563EB" stroke-width="5" stroke-linecap="round" stroke-linejoin="round"/>
  <path d="M16 8V12M32 8V12M48 8V12M16 52V56M32 52V56M48 52V56M8 16H12M8 32H12M8 48H12M52 16H56M52 32H56M52 48H56" stroke="#14B8A6" stroke-width="2.4" stroke-linecap="round"/>
  <circle cx="48" cy="16" r="2.5" fill="#14B8A6"/>
  <circle cx="16" cy="48" r="2.5" fill="#2563EB"/>
</svg>
